<svg width="268" height="28" viewBox="0 0 268 28" fill="none" xmlns="http://www.w3.org/2000/svg">
<path d="M8.208 27V6.552H0.144V1.8H22.104V6.552H14.04V27H8.208ZM36.6179 7.344C38.1539 7.344 39.5219 7.656 40.7219 8.28C41.9459 8.88 42.9059 9.816 43.6019 11.088C44.2979 12.336 44.6459 13.944 44.6459 15.912V27H39.0299V16.776C39.0299 15.216 38.6819 14.064 37.9859 13.32C37.3139 12.576 36.3539 12.204 35.1059 12.204C34.2179 12.204 33.4139 12.396 32.6939 12.78C31.9979 13.14 31.4459 13.704 31.0379 14.472C30.6539 15.24 30.4619 16.224 30.4619 17.424V27H24.8459V0.287998H30.4619V12.996L29.2019 11.376C29.8979 10.08 30.8939 9.084 32.1899 8.388C33.4859 7.692 34.9619 7.344 36.6179 7.344ZM59.4892 27.288C57.2812 27.288 55.3372 26.856 53.6572 25.992C52.0012 25.128 50.7172 23.952 49.8052 22.464C48.8932 20.952 48.4372 19.236 48.4372 17.316C48.4372 15.372 48.8812 13.656 49.7692 12.168C50.6812 10.656 51.9172 9.48 53.4772 8.64C55.0372 7.776 56.8012 7.344 58.7692 7.344C60.6652 7.344 62.3692 7.752 63.8812 8.568C65.4172 9.36 66.6292 10.512 67.5172 12.024C68.4052 13.512 68.8492 15.3 68.8492 17.388C68.8492 17.604 68.8372 17.856 68.8132 18.144C68.7892 18.408 68.7652 18.66 68.7412 18.9H53.0092V15.624H65.7892L63.6292 16.596C63.6292 15.588 63.4252 14.712 63.0172 13.968C62.6092 13.224 62.0452 12.648 61.3252 12.24C60.6052 11.808 59.7652 11.592 58.8052 11.592C57.8452 11.592 56.9932 11.808 56.2492 12.24C55.5292 12.648 54.9652 13.236 54.5572 14.004C54.1492 14.748 53.9452 15.636 53.9452 16.668V17.532C53.9452 18.588 54.1732 19.524 54.6292 20.34C55.1092 21.132 55.7692 21.744 56.6092 22.176C57.4732 22.584 58.4812 22.788 59.6332 22.788C60.6652 22.788 61.5652 22.632 62.3332 22.32C63.1252 22.008 63.8452 21.54 64.4932 20.916L67.4812 24.156C66.5932 25.164 65.4772 25.944 64.1332 26.496C62.7892 27.024 61.2412 27.288 59.4892 27.288ZM83.1794 27V1.8H94.6274C97.3634 1.8 99.7754 2.328 101.863 3.384C103.951 4.416 105.583 5.868 106.759 7.74C107.935 9.612 108.523 11.832 108.523 14.4C108.523 16.944 107.935 19.164 106.759 21.06C105.583 22.932 103.951 24.396 101.863 25.452C99.7754 26.484 97.3634 27 94.6274 27H83.1794ZM89.0114 22.212H94.3394C96.0194 22.212 97.4714 21.9 98.6954 21.276C99.9434 20.628 100.903 19.716 101.575 18.54C102.271 17.364 102.619 15.984 102.619 14.4C102.619 12.792 102.271 11.412 101.575 10.26C100.903 9.084 99.9434 8.184 98.6954 7.56C97.4714 6.912 96.0194 6.588 94.3394 6.588H89.0114V22.212ZM122.138 27.288C119.93 27.288 117.986 26.856 116.306 25.992C114.65 25.128 113.366 23.952 112.454 22.464C111.542 20.952 111.086 19.236 111.086 17.316C111.086 15.372 111.53 13.656 112.418 12.168C113.33 10.656 114.566 9.48 116.126 8.64C117.686 7.776 119.45 7.344 121.418 7.344C123.314 7.344 125.018 7.752 126.53 8.568C128.066 9.36 129.278 10.512 130.166 12.024C131.054 13.512 131.498 15.3 131.498 17.388C131.498 17.604 131.486 17.856 131.462 18.144C131.438 18.408 131.414 18.66 131.39 18.9H115.658V15.624H128.438L126.278 16.596C126.278 15.588 126.074 14.712 125.666 13.968C125.258 13.224 124.694 12.648 123.974 12.24C123.254 11.808 122.414 11.592 121.454 11.592C120.494 11.592 119.642 11.808 118.898 12.24C118.178 12.648 117.614 13.236 117.206 14.004C116.798 14.748 116.594 15.636 116.594 16.668V17.532C116.594 18.588 116.822 19.524 117.278 20.34C117.758 21.132 118.418 21.744 119.258 22.176C120.122 22.584 121.13 22.788 122.282 22.788C123.314 22.788 124.214 22.632 124.982 22.32C125.774 22.008 126.494 21.54 127.142 20.916L130.13 24.156C129.242 25.164 128.126 25.944 126.782 26.496C125.438 27.024 123.89 27.288 122.138 27.288ZM140.141 27L132.005 7.632H137.801L144.569 24.3H141.689L148.709 7.632H154.109L145.937 27H140.141ZM166.992 27V1.8H171.816L186.684 19.944H184.344V1.8H190.104V27H185.316L170.412 8.856H172.752V27H166.992ZM205.282 27.288C203.074 27.288 201.13 26.856 199.45 25.992C197.794 25.128 196.51 23.952 195.598 22.464C194.686 20.952 194.23 19.236 194.23 17.316C194.23 15.372 194.674 13.656 195.562 12.168C196.474 10.656 197.71 9.48 199.27 8.64C200.83 7.776 202.594 7.344 204.562 7.344C206.458 7.344 208.162 7.752 209.674 8.568C211.21 9.36 212.422 10.512 213.31 12.024C214.198 13.512 214.642 15.3 214.642 17.388C214.642 17.604 214.63 17.856 214.606 18.144C214.582 18.408 214.558 18.66 214.534 18.9H198.802V15.624H211.582L209.422 16.596C209.422 15.588 209.218 14.712 208.81 13.968C208.402 13.224 207.838 12.648 207.118 12.24C206.398 11.808 205.558 11.592 204.598 11.592C203.638 11.592 202.786 11.808 202.042 12.24C201.322 12.648 200.758 13.236 200.35 14.004C199.942 14.748 199.738 15.636 199.738 16.668V17.532C199.738 18.588 199.966 19.524 200.422 20.34C200.902 21.132 201.562 21.744 202.402 22.176C203.266 22.584 204.274 22.788 205.426 22.788C206.458 22.788 207.358 22.632 208.126 22.32C208.918 22.008 209.638 21.54 210.286 20.916L213.274 24.156C212.386 25.164 211.27 25.944 209.926 26.496C208.582 27.024 207.034 27.288 205.282 27.288ZM222.458 27L215.474 7.632H220.766L226.562 24.3H224.042L230.09 7.632H234.842L240.71 24.3H238.19L244.166 7.632H249.134L242.114 27H236.678L231.53 12.708H233.186L227.858 27H222.458ZM257.979 27.288C256.323 27.288 254.727 27.096 253.191 26.712C251.679 26.304 250.479 25.8 249.591 25.2L251.463 21.168C252.351 21.72 253.395 22.176 254.595 22.536C255.819 22.872 257.019 23.04 258.195 23.04C259.491 23.04 260.403 22.884 260.931 22.572C261.483 22.26 261.759 21.828 261.759 21.276C261.759 20.82 261.543 20.484 261.111 20.268C260.703 20.028 260.151 19.848 259.455 19.728C258.759 19.608 257.991 19.488 257.151 19.368C256.335 19.248 255.507 19.092 254.667 18.9C253.827 18.684 253.059 18.372 252.363 17.964C251.667 17.556 251.103 17.004 250.671 16.308C250.263 15.612 250.059 14.712 250.059 13.608C250.059 12.384 250.407 11.304 251.103 10.368C251.823 9.432 252.855 8.7 254.199 8.172C255.543 7.62 257.151 7.344 259.023 7.344C260.343 7.344 261.687 7.488 263.055 7.776C264.423 8.064 265.563 8.484 266.475 9.036L264.603 13.032C263.667 12.48 262.719 12.108 261.759 11.916C260.823 11.7 259.911 11.592 259.023 11.592C257.775 11.592 256.863 11.76 256.287 12.096C255.711 12.432 255.423 12.864 255.423 13.392C255.423 13.872 255.627 14.232 256.035 14.472C256.467 14.712 257.031 14.904 257.727 15.048C258.423 15.192 259.179 15.324 259.995 15.444C260.835 15.54 261.675 15.696 262.515 15.912C263.355 16.128 264.111 16.44 264.783 16.848C265.479 17.232 266.043 17.772 266.475 18.468C266.907 19.14 267.123 20.028 267.123 21.132C267.123 22.332 266.763 23.4 266.043 24.336C265.323 25.248 264.279 25.968 262.911 26.496C261.567 27.024 259.923 27.288 257.979 27.288Z" fill="white"/>
</svg>
